<svg xmlns="http://www.w3.org/2000/svg" xmlns:xlink="http://www.w3.org/1999/xlink" width="500" zoomAndPan="magnify" viewBox="0 0 375 374.999991" height="500" preserveAspectRatio="xMidYMid meet" version="1.2"><g id="048cfac647"><path style=" stroke:none;fill-rule:evenodd;fill:#8c52ff;fill-opacity:1;" d="M 190.601562 318.679688 C 197.761719 317.003906 202.976562 314.195312 206.324219 310.183594 C 209.667969 306.234375 211.273438 301.21875 211.273438 295.199219 C 211.273438 289.980469 209.800781 285.164062 206.859375 280.613281 C 203.914062 276.132812 198.496094 271.183594 190.601562 265.898438 Z M 179.898438 165.691406 C 173.878906 166.226562 168.996094 167.832031 165.316406 170.640625 C 159.5625 175.054688 156.621094 180.273438 156.621094 186.492188 C 156.621094 190.308594 157.957031 194.121094 160.632812 198 C 163.308594 201.878906 169.730469 207.097656 179.832031 213.585938 L 179.832031 165.691406 Z M 190.601562 220.476562 C 210.46875 233.320312 223.113281 242.886719 228.597656 249.308594 C 235.957031 257.9375 239.636719 268.105469 239.636719 279.746094 C 239.636719 292.523438 235.289062 303.292969 226.660156 312.121094 C 218.027344 320.953125 205.988281 326.035156 190.601562 327.375 L 190.601562 342.15625 L 179.898438 342.15625 L 179.898438 328.378906 C 171.136719 328.242188 163.308594 327.507812 156.554688 326.238281 C 149.730469 324.964844 141.96875 322.625 133.207031 319.214844 L 133.207031 278.875 L 138.558594 278.875 C 140.230469 288.039062 142.839844 295.464844 146.316406 301.085938 C 149.863281 306.769531 154.34375 311.050781 159.765625 313.929688 C 165.183594 316.804688 171.871094 318.542969 179.898438 319.28125 L 179.898438 258.875 C 159.898438 245.496094 146.585938 235.058594 139.964844 227.5 C 133.339844 219.941406 130.0625 211.246094 130.0625 201.210938 C 130.0625 190.375 134.210938 180.875 142.503906 172.578125 C 150.800781 164.285156 163.242188 159.132812 179.832031 157.058594 L 179.832031 151.171875 L 190.535156 151.171875 L 190.535156 157.058594 C 204.648438 158.0625 218.898438 162.410156 233.214844 170.105469 L 233.214844 206.09375 L 228.332031 206.09375 C 225.921875 197.933594 223.046875 191.308594 219.632812 186.027344 C 216.289062 180.808594 211.941406 176.324219 206.589844 172.578125 C 202.507812 169.835938 197.15625 167.5625 190.46875 165.757812 Z M 193.480469 114.179688 C 191.875 114.714844 190.9375 115.183594 191.003906 115.453125 C 191.605469 117.125 194.28125 118.863281 196.621094 119.398438 L 196.757812 119.398438 C 196.554688 118.863281 196.222656 118.128906 195.6875 117.058594 C 195.152344 115.988281 194.414062 115.050781 193.613281 114.246094 Z M 217.628906 108.160156 C 216.757812 110.5 217.027344 113.042969 219.234375 115.785156 C 226.457031 124.816406 266.125 121.203125 285.925781 148.832031 C 305.726562 176.460938 296.164062 231.78125 312.351562 266.632812 C 328.605469 301.484375 360.382812 348.980469 346.601562 359.75 C 332.753906 370.589844 236.023438 366.976562 184.382812 366.976562 C 132.738281 366.976562 14.335938 386.175781 15.539062 362.761719 C 16.742188 339.347656 39.554688 319.480469 39.554688 303.292969 C 39.554688 287.035156 34.738281 245.628906 54.003906 217.398438 C 73.203125 189.167969 73.804688 160.339844 89.457031 150.101562 C 105.109375 139.867188 127.320312 130.300781 139.359375 122.476562 C 147.386719 117.257812 152.203125 114.449219 154.480469 111.035156 C 159.765625 110.636719 164.648438 110.167969 168.996094 109.632812 L 168.660156 109.832031 C 162.976562 112.910156 157.089844 117.457031 151.535156 123.414062 C 146.25 129.097656 140.03125 134.449219 133.808594 139.800781 C 119.226562 152.378906 104.777344 164.820312 100.964844 182.011719 C 116.417969 177.0625 115.414062 181.007812 120.363281 167.160156 C 123.375 158.867188 127.789062 153.78125 138.089844 144.886719 C 144.445312 139.398438 150.132812 132.710938 155.683594 126.757812 C 160.699219 121.40625 166.1875 117.058594 171.203125 114.382812 C 176.019531 111.773438 180.5 111.171875 184.449219 111.035156 C 185.71875 110.96875 187.457031 111.773438 188.527344 111.972656 C 185.453125 113.980469 183.777344 116.054688 184.515625 118.195312 C 185.785156 121.738281 190.601562 125.21875 194.617188 126.222656 C 196.085938 126.625 197.558594 126.691406 198.898438 126.421875 C 200.769531 126.019531 202.308594 124.949219 203.113281 123.078125 C 204.046875 121.003906 203.847656 118.0625 201.839844 113.980469 C 201.507812 113.378906 201.171875 112.777344 200.835938 112.242188 C 206.054688 110.769531 212.476562 109.363281 217.628906 108.160156 Z M 152.539062 92.441406 C 152.539062 92.441406 79.222656 36.582031 92.46875 31.164062 C 103.4375 26.683594 113.207031 29.222656 121.632812 31.230469 C 127.921875 33.371094 138.894531 39.058594 149.863281 54.375 C 166.722656 77.789062 166.117188 84.949219 166.117188 84.949219 C 166.117188 84.949219 166.921875 52.636719 133.074219 27.550781 C 138.425781 18.589844 142.371094 0.859375 151.269531 7.082031 C 163.308594 15.511719 157.289062 14.910156 190.9375 4.070312 C 196.824219 2.199219 201.039062 1.394531 204.113281 1.394531 C 205.988281 4.207031 207.59375 8.285156 207.660156 11.964844 C 207.792969 17.984375 206.121094 35.109375 204.382812 45.414062 C 202.644531 55.714844 199.5 68.089844 199.5 68.089844 C 199.5 68.089844 208.597656 45.949219 210.070312 36.648438 C 211.539062 27.351562 214.550781 10.761719 214.550781 10.761719 C 214.953125 14.976562 214.550781 18.320312 224.585938 19.191406 C 234.621094 19.992188 226.390625 -0.0742188 244.988281 10.761719 C 263.585938 21.597656 281.042969 20.394531 274.421875 32.96875 C 267.800781 45.613281 235.355469 93.644531 230.539062 96.65625 C 229.402344 97.390625 227.730469 98.328125 225.988281 99.464844 C 223.582031 100 208.0625 103.34375 196.621094 107.894531 C 193.410156 105.683594 189.398438 104.683594 184.917969 104.816406 C 181.839844 104.949219 178.496094 105.617188 175.015625 106.890625 C 168.191406 106.753906 161.570312 106.085938 156.085938 105.285156 L 156.085938 105.082031 C 156.152344 97.792969 152.539062 92.441406 152.539062 92.441406 Z M 152.539062 92.441406 "/><path style="fill:none;stroke-width:4;stroke-linecap:butt;stroke-linejoin:miter;stroke:#ffffff;stroke-opacity:1;stroke-miterlimit:4;" d="M -0.000881076 1.999091 L 159.999129 1.999091 " transform="matrix(0.75,0,0,0.75,268.676442,102.176463)"/></g></svg>